<?xml version="1.0" encoding="UTF-8"?>
<svg version="1.1" xmlns="http://www.w3.org/2000/svg" width="500" height="500">
<path d="M0 0 C2.4375 0.8125 2.4375 0.8125 4.4375 3.8125 C4.69230902 5.82016295 4.69230902 5.82016295 4.69921303 8.16407299 C4.70667852 9.05831201 4.71414401 9.95255103 4.72183573 10.87388819 C4.71893363 12.34906813 4.71893363 12.34906813 4.7159729 13.85404968 C4.7217653 14.89791881 4.7275577 15.94178794 4.73352563 17.01728946 C4.75059618 20.5319836 4.75340821 24.04654699 4.75634766 27.5612793 C4.76564096 30.07400843 4.77580872 32.58673446 4.78678894 35.09945679 C4.80849103 40.51785587 4.82408251 45.93621828 4.83415604 51.3546505 C4.84873121 59.18881531 4.87426472 67.02291413 4.90248732 74.85704026 C4.94797648 87.56686681 4.98458249 100.27670284 5.015625 112.98657227 C5.04580185 125.33424549 5.08017093 137.68189537 5.12011719 150.02954102 C5.1225987 150.79820029 5.1250802 151.56685957 5.12763691 152.35881156 C5.14707623 158.37008299 5.16675898 164.38135363 5.18651867 170.39262402 C5.28333807 199.86588767 5.358921 229.33917117 5.4375 258.8125 C43.3875 258.8125 81.3375 258.8125 120.4375 258.8125 C120.2725 245.65375 120.1075 232.495 119.9375 218.9375 C119.845872 210.96616316 119.75491754 202.99486181 119.671875 195.0234375 C119.6567197 193.57013597 119.6567197 193.57013597 119.64125824 192.08747482 C119.57120128 185.32917046 119.50377957 178.57084234 119.4375 171.8125 C119.42907074 170.96573196 119.42064148 170.11896393 119.41195679 169.24653625 C119.31944016 159.92315289 119.24285514 150.60009683 119.20532227 141.27630615 C119.19346638 138.80577582 119.17639912 136.33526485 119.15405273 133.86480713 C119.12476677 130.48786978 119.11424335 127.11142285 119.109375 123.734375 C119.09091522 122.26878647 119.09091522 122.26878647 119.07208252 120.77359009 C119.07504333 119.89020966 119.07800415 119.00682922 119.08105469 118.09667969 C119.07740906 117.33538757 119.07376343 116.57409546 119.07000732 115.78973389 C119.54418674 113.23848956 120.35476276 112.32704531 122.4375 110.8125 C127.87228261 111.24728261 127.87228261 111.24728261 129.4375 112.8125 C129.59102911 114.89717378 129.67603507 116.98691754 129.73461914 119.07641602 C129.75427231 119.73005127 129.77392548 120.38368652 129.79417419 121.05712891 C129.85826181 123.22678218 129.91547206 125.39656093 129.97265625 127.56640625 C130.01564587 129.06714572 130.05906232 130.56787303 130.10289001 132.06858826 C130.21729768 136.02555365 130.32588362 139.9826585 130.43328857 143.93981934 C130.54383048 147.97495303 130.6598352 152.00992919 130.77539062 156.04492188 C131.00146333 163.96730341 131.22139064 171.88984046 131.4375 179.8125 C132.0651123 178.86181641 132.69272461 177.91113281 133.33935547 176.93164062 C140.90688213 165.68161495 152.29656607 159.50456633 165.4375 156.8125 C173.00430057 156.04722131 179.64845119 156.23281972 186.4375 159.8125 C191.08312942 164.69636683 191.92696327 168.1986908 191.83203125 174.80078125 C190.86740099 182.16444397 186.35620709 187.35027139 180.875 192.0625 C170.46781638 199.74732617 158.64660761 204.50137366 145.54296875 203.6171875 C140.31511535 202.75502277 136.53083417 201.17113317 132.4375 197.8125 C132.1075 197.1525 131.7775 196.4925 131.4375 195.8125 C131.1075 216.6025 130.7775 237.3925 130.4375 258.8125 C146.80255593 258.73331719 146.80255593 258.73331719 163.16748047 258.63232422 C165.21321403 258.62648513 167.25894991 258.62138819 169.3046875 258.6171875 C170.37404541 258.60695557 171.44340332 258.59672363 172.54516602 258.58618164 C173.56006104 258.58593994 174.57495605 258.58569824 175.62060547 258.58544922 C176.50440887 258.581008 177.38821228 258.57656677 178.29879761 258.57199097 C180.4375 258.8125 180.4375 258.8125 182.4375 260.8125 C182.6875 263.8125 182.6875 263.8125 182.4375 266.8125 C180.00204005 269.24795995 178.70760519 269.053096 175.38421425 269.08029827 C174.67478776 269.07590179 173.96536126 269.07150531 173.23443699 269.06697559 C172.48001343 269.07018207 171.72558986 269.07338855 170.94830498 269.07669219 C168.39389254 269.08506251 165.8397103 269.07904357 163.28529358 269.07319641 C161.446043 269.0762139 159.60679367 269.08010134 157.76754659 269.08478898 C152.69273381 269.0951297 147.61799118 269.09287181 142.54317248 269.08860838 C137.07819699 269.08615212 131.61323888 269.09514157 126.14826965 269.10264587 C115.43394017 269.11542558 104.7196357 269.11718251 94.00529987 269.11484561 C85.30065908 269.11306596 76.59602591 269.11480449 67.89138603 269.11907005 C66.65471207 269.11966524 65.4180381 269.12026043 64.14388917 269.12087366 C61.63196743 269.12208535 59.12004569 269.12329948 56.60812395 269.12451603 C35.71568401 269.13416254 14.82325368 269.13458998 -6.0691871 269.12921212 C-7.06652633 269.12895549 -7.06652633 269.12895549 -8.08401382 269.12869367 C-9.4285896 269.12834702 -10.77316538 269.12799849 -12.11774116 269.12764808 C-33.04327314 269.12228987 -53.96876299 269.13022248 -74.89428711 269.14868164 C-98.38715367 269.16938112 -121.88000008 269.18009719 -145.37287718 269.17610615 C-157.81828613 269.17418968 -170.26365668 269.17672494 -182.70905876 269.19082069 C-193.30364263 269.20269826 -203.89816448 269.2041803 -214.49274915 269.19203053 C-219.90266188 269.18611629 -225.31246098 269.1851122 -230.72236633 269.19703293 C-235.66869719 269.2078059 -240.61481837 269.20489184 -245.56113905 269.19077124 C-247.3565446 269.18810044 -249.15196613 269.1905646 -250.9473561 269.19850711 C-253.37636076 269.20851202 -255.80462215 269.20027905 -258.23359585 269.18723011 C-258.94068118 269.19453946 -259.64776651 269.2018488 -260.37627867 269.20937964 C-263.22417051 269.17737581 -265.1362718 269.09988158 -267.53227526 267.48439187 C-268.5625 265.8125 -268.5625 265.8125 -268.375 262.6875 C-268.106875 261.73875 -267.83875 260.79 -267.5625 259.8125 C-264.4001795 258.23133975 -261.00408293 258.68312878 -257.53271484 258.69897461 C-256.70336929 258.69882858 -255.87402374 258.69868256 -255.01954651 258.6985321 C-252.27081715 258.69923029 -249.52215506 258.70701829 -246.7734375 258.71484375 C-244.87057533 258.71670826 -242.96771268 258.71813201 -241.06484985 258.71913147 C-236.05068644 258.72295401 -231.03655189 258.73278207 -226.0223999 258.74383545 C-220.90816641 258.75405521 -215.79392826 258.7586303 -210.6796875 258.76367188 C-200.64061231 258.77440455 -190.60155855 258.79147784 -180.5625 258.8125 C-180.63101669 257.93447723 -180.69953339 257.05645447 -180.77012634 256.15182495 C-181.34119089 248.55789713 -181.74266692 240.99620606 -181.87890625 233.3828125 C-181.9100779 231.8809993 -181.9100779 231.8809993 -181.94187927 230.34884644 C-182.00624267 227.21178725 -182.06572158 224.07465895 -182.125 220.9375 C-182.16829347 218.78514966 -182.21191079 216.63280581 -182.25585938 214.48046875 C-182.36180416 209.25788138 -182.46376046 204.0352283 -182.5625 198.8125 C-183.24957031 199.23402344 -183.93664062 199.65554688 -184.64453125 200.08984375 C-185.54558594 200.63769531 -186.44664062 201.18554688 -187.375 201.75 C-188.26832031 202.29527344 -189.16164063 202.84054687 -190.08203125 203.40234375 C-196.71131325 207.17111667 -204.95400102 206.67204787 -212.28515625 205.3046875 C-223.64063276 201.50106447 -231.55813328 191.13303857 -238.56054688 181.94921875 C-246.27506781 171.87039141 -256.84567946 160.18897183 -269.5625 156.8125 C-277.7152623 156.99871006 -284.97764537 159.72017673 -292.625 162.375 C-293.87216797 162.79974609 -295.11933594 163.22449219 -296.40429688 163.66210938 C-299.4599361 164.70407064 -302.51243183 165.75436513 -305.5625 166.8125 C-304.41389025 163.36667075 -303.72056091 162.95479975 -300.80078125 160.9921875 C-300.01864258 160.46125488 -299.23650391 159.93032227 -298.43066406 159.38330078 C-297.58729492 158.82368652 -296.74392578 158.26407227 -295.875 157.6875 C-295.01229492 157.1085498 -294.14958984 156.52959961 -293.26074219 155.93310547 C-291.5126026 154.76324656 -289.76179921 153.59735802 -288.00830078 152.43554688 C-285.90144972 151.0374289 -283.8063448 149.62402134 -281.71484375 148.203125 C-262.10835219 135.03536988 -240.05009187 127.0961676 -216.0859375 130.2734375 C-203.42353815 132.842182 -191.36714417 139.39057998 -184 150.3125 C-183.525625 151.1375 -183.05125 151.9625 -182.5625 152.8125 C-181.41892901 149.4512563 -180.33916051 146.08096667 -179.3359375 142.67578125 C-176.45073786 133.13563812 -173.28475396 125.38776725 -166.5625 117.8125 C-165.923125 117.07644531 -165.28375 116.34039062 -164.625 115.58203125 C-155.60977256 105.89429692 -142.69157575 99.24127344 -129.40234375 98.5390625 C-115.00996547 98.11562662 -102.29597987 100.71562061 -88.75 105.48046875 C-77.35034983 109.45226089 -67.62514768 110.54193222 -55.5625 109.8125 C-55.99577761 127.43795057 -65.48298525 145.86153875 -77.73828125 158.21484375 C-89.7462755 169.25954109 -105.17930423 172.62583527 -121 173.25 C-146.07049492 174.21231601 -146.07049492 174.21231601 -167.5625 185.8125 C-178.45388293 207.59526587 -170.5625 234.45862739 -170.5625 258.8125 C-116.1125 258.8125 -61.6625 258.8125 -5.5625 258.8125 C-5.59730469 240.28351563 -5.63210938 221.75453125 -5.66796875 202.6640625 C-5.68328817 190.96093667 -5.69787147 179.25781696 -5.70898438 167.5546875 C-5.71485834 161.40983049 -5.72091988 155.2649737 -5.72729492 149.12011719 C-5.72848179 147.964819 -5.72848179 147.964819 -5.72969264 146.78618145 C-5.74275432 134.33837088 -5.7664133 121.89060172 -5.79395839 109.44281574 C-5.82197479 96.67592856 -5.83866826 83.90906312 -5.84476548 71.14214647 C-5.84888977 63.25898153 -5.86193382 55.37593357 -5.8862494 47.49280463 C-5.90392441 41.45647435 -5.90587519 35.42024552 -5.90182304 29.38388634 C-5.90265206 26.90138082 -5.90866782 24.41887109 -5.92011642 21.93639183 C-5.93492784 18.56066887 -5.93149517 15.18545639 -5.92326355 11.8097229 C-5.93200207 10.81557487 -5.9407406 9.82142684 -5.94974393 8.79715312 C-5.94377078 7.89793836 -5.93779764 6.9987236 -5.93164349 6.0722599 C-5.93335223 4.90234157 -5.93335223 4.90234157 -5.93509549 3.70878851 C-5.81213898 3.0830133 -5.68918247 2.45723809 -5.5625 1.8125 C-2.5625 -0.1875 -2.5625 -0.1875 0 0 Z M-159.234375 124.9140625 C-167.0806031 134.68235319 -171.87662796 147.2473818 -171.5625 159.8125 C-169.20153872 157.56531999 -167.26373427 155.17022431 -165.3125 152.5625 C-157.19015522 142.16993463 -147.27366777 134.34278761 -133.8671875 132.015625 C-129.10899789 131.59625914 -124.32901408 131.47977256 -119.5625 131.8125 C-118.5625 132.8125 -118.5625 132.8125 -118.4375 135.8125 C-118.5625 138.8125 -118.5625 138.8125 -119.5625 139.8125 C-121.83036642 140.08811917 -124.10208279 140.33221457 -126.375 140.5625 C-137.94027111 141.97195708 -147.81095012 145.79680848 -155.5625 154.8125 C-158.82893133 159.31113989 -161.72466618 164.03581518 -164.5625 168.8125 C-161.51826993 170.33461504 -159.62824875 169.02845318 -156.4375 168 C-146.26925823 164.92275158 -136.0059121 163.90374396 -125.43212891 163.52709961 C-110.33890006 162.97106518 -95.23173329 160.13458311 -83.5625 149.8125 C-77.51235652 142.33136606 -68.5625 130.73063357 -68.5625 120.8125 C-69.63238159 120.66554688 -69.63238159 120.66554688 -70.72387695 120.515625 C-78.67586232 119.32028323 -86.10920898 117.2862341 -93.75 114.8125 C-118.27516166 106.95533852 -139.92684281 104.69579766 -159.234375 124.9140625 Z M-260.5625 147.8125 C-258.27949077 150.26380798 -255.85281503 152.031399 -253.0625 153.875 C-244.02706132 160.14851419 -236.57123905 167.45804475 -229.7578125 176.06640625 C-227.51740782 178.86890534 -225.19754554 181.56977556 -222.8125 184.25 C-222.11640625 185.03246094 -221.4203125 185.81492187 -220.703125 186.62109375 C-215.49669397 191.951035 -210.29892733 195.89288073 -202.6875 196.3125 C-197.40323209 196.15285444 -193.4345604 194.41883077 -189.5625 190.8125 C-188.3447141 188.73335173 -188.3447141 188.73335173 -187.5625 186.8125 C-195.37879016 177.88151553 -202.81051112 170.1098411 -213.625 164.8125 C-216.5625 162.8125 -216.5625 162.8125 -217.5 159.0625 C-217.520625 157.99 -217.54125 156.9175 -217.5625 155.8125 C-211.33670449 155.36877554 -207.72299576 156.23165197 -202.5625 159.875 C-201.96163574 160.27968506 -201.36077148 160.68437012 -200.74169922 161.10131836 C-196.04262571 164.32330503 -191.66341207 167.8516812 -187.5625 171.8125 C-186.38402722 168.27708166 -187.04192425 167.17298284 -188.60620117 163.92578125 C-194.49002632 152.46156029 -200.43168611 146.674145 -212.5625 141.8125 C-228.8562734 136.78236907 -245.36233282 141.32743711 -260.5625 147.8125 Z M142.11328125 181.5078125 C140.73246976 183.51428756 140.73246976 183.51428756 139.4375 186.8125 C139.88572408 189.68802456 139.88572408 189.68802456 141.4375 191.8125 C146.70691295 194.44720648 154.15247268 193.43240401 159.6484375 191.94140625 C168.41454196 188.50482288 177.1032347 183.4810306 181.4375 174.8125 C182.18941978 172.18141496 182.18941978 172.18141496 181.4375 169.8125 C178.16778971 166.84932505 175.03211639 166.33883707 170.671875 166.52734375 C160.16954627 167.86767591 148.74358507 173.01945893 142.11328125 181.5078125 Z " fill="#FEFAF6" transform="translate(305.5625,152.1875)"/>
<path d="M0 0 C8.09436128 5.41990858 14.56625718 11.34672953 17.671875 20.7890625 C18.37273678 26.04552589 17.54063648 29.33753607 14.671875 33.7890625 C9.01964158 39.44129592 3.36552949 39.89749105 -4.265625 39.9140625 C-6.28663612 39.88216379 -8.3076022 39.84375334 -10.328125 39.7890625 C-9.73644531 40.16417969 -9.14476562 40.53929687 -8.53515625 40.92578125 C-1.06097458 45.76631978 7.2628815 51.75533687 9.671875 60.7890625 C10.09912352 65.32389324 10.19986723 69.36037765 8.609375 73.6640625 C4.51514051 78.15451323 -0.66187432 80.41570475 -6.66796875 81.02734375 C-20.20660352 81.41416189 -32.75749177 76.16657667 -43.2109375 67.79296875 C-48.47359373 62.81189376 -52.39915266 56.83511438 -52.640625 49.4765625 C-52.57794401 43.96959003 -50.42902223 40.88995973 -46.578125 37.0390625 C-39.86076063 33.30719341 -32.79396673 33.54203097 -25.328125 33.7890625 C-25.98039062 33.36496094 -26.63265625 32.94085938 -27.3046875 32.50390625 C-34.60290609 27.60613419 -41.36023563 22.36296512 -44.328125 13.7890625 C-44.95887082 8.58735622 -44.91075598 4.24563995 -42.953125 -0.6484375 C-31.14206923 -12.17827766 -12.7308015 -7.46922747 0 0 Z M-31.140625 4.2890625 C-32.1925 4.7840625 -33.244375 5.2790625 -34.328125 5.7890625 C-34.20711669 11.59746144 -32.52887575 14.66566987 -28.5390625 18.8671875 C-21.29980603 25.15996875 -11.41523896 29.62847835 -1.7421875 29.84765625 C1.49578354 29.60140279 3.76865711 29.40807821 6.484375 27.546875 C7.91803049 25.80454163 7.91803049 25.80454163 7.546875 23.34765625 C4.97587111 15.82976541 -2.46281333 10.27325971 -9.328125 6.7890625 C-20.12752215 2.46329189 -20.12752215 2.46329189 -31.140625 4.2890625 Z M-42.328125 47.7890625 C-42.328125 52.72333016 -40.48410884 55.56183302 -37.26171875 59.0546875 C-29.89441106 65.66293925 -19.84949746 70.30599787 -9.953125 71.0390625 C-6.02699237 70.76829473 -3.69568785 69.7603188 -0.328125 67.7890625 C-0.5478322 62.40623614 -1.69958955 59.43132455 -5.39453125 55.48828125 C-13.85087977 48.05694467 -32.37445412 37.83539162 -42.328125 47.7890625 Z " fill="#FEFAF6" transform="translate(412.328125,229.2109375)"/>
<path d="M0 0 C3.88946089 3.38938734 5.74681921 6.93235686 6.375 12.0625 C5.57674151 20.44421415 1.09009262 26.65112975 -4.9296875 32.3046875 C-7.79475998 34.65080345 -10.69081841 36.34540921 -14 38 C-13.29875 37.97679687 -12.5975 37.95359375 -11.875 37.9296875 C-3.99892032 37.77987077 3.4895841 37.97767916 10 43 C13.5715098 46.94097633 13.50757961 51.13711203 13.34375 56.22265625 C12.40453155 63.81111438 7.8984147 69.39342825 2 74 C-9.60545928 81.78502859 -22.18883377 87.26412132 -36.4453125 84.53125 C-41.89251783 83.02113367 -45.03461115 81.00409369 -48 76 C-49.52633566 70.84861713 -49.43038116 66.04282229 -47.26953125 61.109375 C-42.7521331 53.60354423 -36.61922157 48.15593904 -29 44 C-29.76183594 44.03480469 -30.52367187 44.06960938 -31.30859375 44.10546875 C-39.64887888 44.32412791 -46.47762028 44.00869935 -53 38.4375 C-56.37911843 34.31919941 -56.46398287 31.24810118 -56.40234375 26.015625 C-55.382746 18.3735914 -50.17170108 12.31045866 -44.3203125 7.59375 C-31.89754991 -0.93905663 -14.39430351 -7.531903 0 0 Z M-40.2109375 17.921875 C-44.20075075 22.12339263 -45.87899169 25.19160106 -46 31 C-41.21305856 34.23441989 -37.5300723 34.33594792 -32.00390625 33.63671875 C-21.76155305 31.46571281 -11.91694222 26.68079058 -5.9375 17.875 C-4.50140246 15.59009082 -3.93022424 14.58182245 -4.25390625 11.8828125 C-4.93498542 9.80042785 -4.93498542 9.80042785 -7 8 C-18.45121537 4.65272166 -31.60896429 10.4445414 -40.2109375 17.921875 Z M-34.9921875 61.70703125 C-37.68968118 64.78763201 -38.4867757 66.97974298 -39 71 C-36.26033284 74.00058784 -34.22323199 74.86704 -30.125 75.3125 C-19.62791065 75.11234364 -9.75478058 70.28028493 -2.15234375 63.3046875 C1.59836388 59.35004069 2.77823526 56.43323623 3 51 C-11.14796306 44.59337522 -24.32999623 51.73002782 -34.9921875 61.70703125 Z " fill="#FEFAF6" transform="translate(487,225)"/>
<path d="M0 0 C4.15146588 0.76251414 5.32528048 2.37469204 8.0625 5.5625 C9.51112979 8.10390128 10.64060229 10.73350103 11.75 13.4375 C12.04455078 14.11941406 12.33910156 14.80132812 12.64257812 15.50390625 C18.88547515 30.23433742 17.58611198 41.92294652 12.0625 56.5625 C11.70164307 57.52712158 11.70164307 57.52712158 11.33349609 58.51123047 C7.29962786 68.98954816 7.29962786 68.98954816 3.04296875 70.9609375 C-0.43773665 71.66346519 -1.86836606 71.26757441 -4.9375 69.5625 C-5.9275 68.5725 -5.9275 68.5725 -6.9375 67.5625 C-6.92589844 68.60148437 -6.91429687 69.64046875 -6.90234375 70.7109375 C-6.72040896 93.33330711 -6.72040896 93.33330711 -10.9375 98.5625 C-13.95528937 100.07139469 -15.56072637 100.06276276 -18.9375 99.5625 C-21.96210872 97.58854484 -24.41334232 95.13263505 -26.9375 92.5625 C-27.69675781 91.79035156 -28.45601563 91.01820313 -29.23828125 90.22265625 C-39.38217748 79.43091454 -44.30103209 70.02235987 -44.1875 55.1875 C-44.19523437 54.18460938 -44.20296875 53.18171875 -44.2109375 52.1484375 C-44.17421054 38.11874062 -44.17421054 38.11874062 -40.1875 33.5625 C-37.0527144 32.16926195 -35.36818195 32.05620101 -31.9375 32.5625 C-29.22056837 34.53066498 -27.02015729 36.91586484 -24.75 39.375 C-24.13447266 40.01759766 -23.51894531 40.66019531 -22.88476562 41.32226562 C-21.73879031 42.52038716 -20.59910575 43.72458188 -19.46801758 44.93676758 C-17.98691661 46.51000914 -16.47301833 48.0425123 -14.9375 49.5625 C-15.2675 48.4075 -15.5975 47.2525 -15.9375 46.0625 C-18.81977943 34.1808733 -15.19907953 22.94494461 -10.5 12 C-10.06772095 10.98196289 -10.06772095 10.98196289 -9.62670898 9.94335938 C-7.43655546 5.05701965 -5.51017086 1.0551391 0 0 Z M0.0625 14.5625 C-5.82688508 27.84733428 -8.67176318 36.65849665 -3.375 50.5625 C-2.57130193 52.56605326 -1.76173369 54.56730701 -0.9375 56.5625 C-0.2775 56.5625 0.3825 56.5625 1.0625 56.5625 C2.07790138 53.73388187 3.0748739 50.90081286 4.0625 48.0625 C4.34867187 47.27101562 4.63484375 46.47953125 4.9296875 45.6640625 C7.74805102 37.47738751 7.79524685 31.46883697 4.6875 23.1875 C4.24664062 21.98351562 3.80578125 20.77953125 3.3515625 19.5390625 C2.25743567 16.51219273 2.25743567 16.51219273 0.0625 14.5625 Z M-33.9375 46.5625 C-34.53414843 60.99807724 -33.26218651 68.92470215 -23.9375 80.3984375 C-22.06529755 82.42421905 -20.20018297 83.9968042 -17.9375 85.5625 C-15.42431892 76.70556346 -16.79604778 68.20759444 -21.2265625 60.24609375 C-24.49118935 55.08728502 -28.29279137 50.54185092 -32.9375 46.5625 C-33.2675 46.5625 -33.5975 46.5625 -33.9375 46.5625 Z " fill="#FEFAF6" transform="translate(303.9375,78.4375)"/>
<path d="M0 0 C7.10747008 4.3810596 14.03214363 10.68047113 16.6875 18.8125 C17.20838248 23.41114815 17.28086425 27.37593392 15.5 31.6875 C10.89858569 37.08226161 6.65344888 39.10832165 -0.3125 39.8125 C-14.66269157 40.00613077 -27.77030787 34.04760066 -38.25 24.4375 C-42.68432968 19.67272748 -45.45363828 14.11950297 -45.75 7.5625 C-45.08909762 1.89762243 -42.66841022 -1.57831724 -38.3125 -5.1875 C-25.26022025 -10.3455539 -11.85817068 -6.40579572 0 0 Z M-34.3125 4.8125 C-35.58018453 7.06245244 -35.58018453 7.06245244 -35.3125 9.8125 C-30.86958602 18.69832796 -22.26395295 24.12839862 -13.3125 27.8125 C-9.97691827 28.88368275 -6.80741325 29.0100763 -3.3125 29.0625 C-2.28125 29.08828125 -1.25 29.1140625 -0.1875 29.140625 C3.01632325 28.77497126 4.33837721 27.95833332 6.6875 25.8125 C6.55242735 20.40959412 4.38736378 17.56013522 0.8359375 13.76953125 C-6.42079179 7.15931057 -15.7392705 2.81530469 -25.625 2.5 C-30.23305321 2.87617465 -30.23305321 2.87617465 -34.3125 4.8125 Z " fill="#FEFAF6" transform="translate(408.3125,316.1875)"/>
<path d="M0 0 C7.3652854 4.48659991 10.72023995 10.63676012 13.078125 18.67578125 C16.06060375 31.07789813 15.1308003 45.3690099 8.57421875 56.3984375 C5.94912857 60.15631853 3.39489605 63.40185598 -1 65 C-6.37616651 65.90379229 -10.70396179 65.7060871 -15.3125 62.625 C-22.14663504 56.77111463 -25.30457313 47.6595182 -26.22119141 38.88183594 C-26.87928569 26.58807469 -26.31304607 14.63829211 -18.0625 4.8125 C-12.83307225 -0.79120091 -7.29149572 -2.26036367 0 0 Z M-9.375 10.8125 C-14.84420485 16.62251583 -16.25227168 24.33342755 -16.4375 32.0625 C-16.13415618 41.29426353 -14.51736714 48.30648781 -8 55 C-4.78907969 54.73242331 -3.28176505 54.25690343 -0.875 52.0625 C4.68380541 42.98311783 5.64073247 32.14512527 3.2734375 21.8359375 C1.48034649 16.42750851 -0.43635103 12.48278474 -5 9 C-7.23295035 8.79777556 -7.23295035 8.79777556 -9.375 10.8125 Z " fill="#FEFAF6" transform="translate(437,172)"/>
<path d="M0 0 C5.15080817 6.21649262 4.24606824 14.62363366 4.3125 22.25 C4.34150391 23.34441406 4.37050781 24.43882812 4.40039062 25.56640625 C4.51852507 40.74213897 -3.95017463 51.00717832 -14 61.6875 C-14.47373047 62.21706299 -14.94746094 62.74662598 -15.43554688 63.29223633 C-18.24782377 66.16318182 -20.31155557 67.34532051 -24.25390625 67.4453125 C-28 67 -28 67 -29.9375 65.1875 C-34.8303465 55.1139925 -34.44798104 39.53287359 -31 29 C-26.3590124 18.28188856 -13.47956112 -2.00759421 0 0 Z M-9.109375 16.0546875 C-16.82201564 24.2921528 -23.09913377 32.2427348 -23 44 C-22.7883651 47.35323745 -22.45175061 50.6709455 -22 54 C-20.30479259 52.35616251 -18.6445699 50.693907 -17 49 C-16.4225 48.40703125 -15.845 47.8140625 -15.25 47.203125 C-6.51151051 37.78664926 -5.51423932 30.10634418 -5.859375 17.62109375 C-5.90578125 16.42613281 -5.9521875 15.23117188 -6 14 C-7.37139319 13.88370666 -7.37139319 13.88370666 -9.109375 16.0546875 Z " fill="#FEFAF5" transform="translate(345,226)"/>
<path d="M0 0 C4.64193144 1.40133779 4.64193144 1.40133779 6.3125 4 C7.70885468 9.67932739 7.57413124 15.37150491 7.625 21.1875 C7.65400391 22.27353516 7.68300781 23.35957031 7.71289062 24.47851562 C7.79414961 34.88591579 5.05623542 42.45355099 -1.375 50.5625 C-1.80490234 51.10551758 -2.23480469 51.64853516 -2.67773438 52.20800781 C-14.30203747 66.63201494 -14.30203747 66.63201494 -20.5625 67.3125 C-23.6875 67 -23.6875 67 -26 65.1875 C-31.42609868 58.15366838 -30.27193468 45.03596477 -29.44921875 36.5390625 C-27.65492933 25.04836053 -13.61886176 0 0 0 Z M-6.8125 16.8125 C-14.90612249 25.13975283 -19.17584244 33.29207112 -19.6875 45 C-19.56224432 47.78067602 -19.22464822 50.26054409 -18.6875 53 C-11.73069489 47.60492665 -5.20810663 40.64555896 -2.6875 32 C-2.45945518 28.89019845 -2.49855923 25.80338303 -2.5625 22.6875 C-2.57152344 21.85154297 -2.58054687 21.01558594 -2.58984375 20.15429688 C-2.61329011 18.10274031 -2.64915734 16.05133223 -2.6875 14 C-4.50553249 14 -5.55862167 15.61203801 -6.8125 16.8125 Z " fill="#FEFAF5" transform="translate(341.6875,111)"/>
<path d="M0 0 C10.85358527 4.64133581 20.22053286 19.50055993 24.68359375 29.84765625 C27.99171033 40.22056416 27.49885513 53.64175314 24.375 64.015625 C23.30078125 65.84765625 23.30078125 65.84765625 21.375 67.015625 C14.92817633 67.96231472 14.92817633 67.96231472 11.62060547 65.94628906 C9.89241141 64.43262586 8.35284387 62.84495087 6.8125 61.140625 C6.25312744 60.54854248 5.69375488 59.95645996 5.11743164 59.34643555 C-5.19924412 48.22313698 -11.38734074 37.84348177 -11 22.390625 C-10.99871094 21.40578125 -10.99742187 20.4209375 -10.99609375 19.40625 C-10.91949156 13.02273445 -10.62292976 6.67849623 -7.5 0.953125 C-4.95029621 -0.32172689 -2.79372002 -0.47246736 0 0 Z M-0.625 14.015625 C-1.33905264 28.58229895 -0.4194595 36.99088396 9.6875 48.140625 C11.2391009 49.776035 12.79787572 51.40481457 14.375 53.015625 C17.4883575 47.5301856 16.69378298 42.21168549 15.8125 36.140625 C13.37861427 27.5534648 7.18204255 19.64970259 0.375 14.015625 C0.045 14.015625 -0.285 14.015625 -0.625 14.015625 Z " fill="#FEFAF5" transform="translate(270.625,225.984375)"/>
<path d="M0 0 C2.67439521 1.90022817 3.77222643 3.10928498 4.58666992 6.29418945 C5.34185365 11.23789962 5.26883668 16.19532656 5.3125 21.1875 C5.34150391 22.27353516 5.37050781 23.35957031 5.40039062 24.47851562 C5.47371725 33.86996364 3.56447976 41.65498445 -2.625 48.9375 C-3.31335938 49.75089844 -4.00171875 50.56429687 -4.7109375 51.40234375 C-5.46632813 52.25957031 -6.22171875 53.11679688 -7 54 C-7.85851562 54.99128906 -8.71703125 55.98257813 -9.6015625 57.00390625 C-17.25778364 65.66514757 -17.25778364 65.66514757 -21 67 C-24.18351958 66.80509064 -26.24920177 66.56957107 -28.8125 64.625 C-33.9578941 57.58393439 -32.75496938 43.27093298 -31.57421875 35.02734375 C-29.10196675 23.27277135 -22.64135587 15.29823642 -14.5 6.8125 C-13.87125977 6.13985107 -13.24251953 5.46720215 -12.59472656 4.77416992 C-8.51326923 0.68474515 -6.05033718 -1.01086715 0 0 Z M-6 13 C-7.81757608 14.97079324 -9.5734023 16.9616785 -11.3125 19 C-11.79912109 19.55300781 -12.28574219 20.10601562 -12.78710938 20.67578125 C-19.17129738 28.15121001 -21.6443092 34.12710425 -21.25 44 C-21.23195313 44.87011719 -21.21390625 45.74023438 -21.1953125 46.63671875 C-21.14868436 48.75829907 -21.07696077 50.87930335 -21 53 C-16.50850066 49.52900051 -13.31576136 46.09162126 -10.1875 41.375 C-9.79369141 40.80265625 -9.39988281 40.2303125 -8.99414062 39.640625 C-6.1948371 35.51129218 -4.86898637 32.521031 -4.90234375 27.55078125 C-4.90717773 26.27944336 -4.90717773 26.27944336 -4.91210938 24.98242188 C-4.92048828 24.10134766 -4.92886719 23.22027344 -4.9375 22.3125 C-4.94201172 21.41982422 -4.94652344 20.52714844 -4.95117188 19.60742188 C-4.96295017 17.40488013 -4.97939836 15.20247401 -5 13 C-5.33 13 -5.66 13 -6 13 Z " fill="#FEFAF5" transform="translate(344,169)"/>
<path d="M0 0 C10.38512292 6.38759088 21.2125341 20.42892057 24.375 32.25 C26.07130928 42.06436082 25.9414792 53.4440028 23 63 C20.75 65.8125 20.75 65.8125 18 67 C14.04852372 67.17180332 11.69763835 66.01642631 8.6875 63.625 C-0.45108682 55.19404712 -11.25199487 43.33943992 -12.18725586 30.41162109 C-12.26858057 27.4591033 -12.27279224 24.5159942 -12.25 21.5625 C-12.25773437 20.56412109 -12.26546875 19.56574219 -12.2734375 18.53710938 C-12.25808798 12.70045624 -11.90830602 7.54044847 -10 2 C-6.15691236 -0.56205842 -4.5659696 -0.67366765 0 0 Z M-2 13 C-2.81075395 29.53938067 0.06831016 38.20565958 10.890625 50.7265625 C11.58671875 51.47679687 12.2828125 52.22703125 13 53 C13.33 53 13.66 53 14 53 C16.10963064 44.82518125 15.44477647 36.70222908 12 29 C9.90797168 25.77214822 7.52639226 22.89493575 5 20 C4.13181641 18.95199219 4.13181641 18.95199219 3.24609375 17.8828125 C1.86526004 16.22581205 0.43723009 14.60832891 -1 13 C-1.33 13 -1.66 13 -2 13 Z " fill="#FEFAF6" transform="translate(272,169)"/>
</svg>
